<svg width="90" height="85" viewBox="0 0 90 85" fill="none" xmlns="http://www.w3.org/2000/svg">
<path d="M89.6559 6.47949C89.9207 5.99483 89.7425 5.38726 89.2578 5.12245L81.3599 0.807078C80.8752 0.542265 80.2676 0.720484 80.0028 1.20514C79.738 1.6898 79.9162 2.29736 80.4009 2.56218L87.4213 6.39806L83.5854 13.4185C83.3206 13.9031 83.4988 14.5107 83.9835 14.7755C84.4681 15.0403 85.0757 14.8621 85.3405 14.3774L89.6559 6.47949ZM2.25471 84.716C6.34539 66.2261 29.4218 24.4534 89.0598 6.95957L88.4968 5.04043C28.1348 22.7466 4.54458 65.1072 0.30193 84.284L2.25471 84.716Z" fill="#09B5EC"/>
</svg>
