<svg width="40" height="127" viewBox="0 0 40 127" fill="none" xmlns="http://www.w3.org/2000/svg">
<path d="M39.0254 9.1793C39.4262 8.79936 39.4432 8.16642 39.0632 7.76559L32.8718 1.23371C32.4918 0.832881 31.8589 0.815946 31.4581 1.19589C31.0572 1.57583 31.0403 2.20876 31.4202 2.60959L36.9238 8.41571L31.1176 13.9193C30.7168 14.2992 30.6999 14.9321 31.0798 15.333C31.4598 15.7338 32.0927 15.7507 32.4935 15.3708L39.0254 9.1793ZM38.0176 125.222C15.3501 107.015 2.85787 77.5713 2.40362 52.8886C2.17658 40.552 4.95792 29.5104 10.8605 21.6647C16.7315 13.8608 25.7628 9.11747 38.3107 9.45318L38.3642 7.45389C25.2134 7.10206 15.5482 12.1068 9.26225 20.4623C3.00782 28.7758 0.171693 40.3048 0.403957 52.9254C0.868312 78.1573 13.6018 108.176 36.7651 126.782L38.0176 125.222Z" fill="#09B5EC"/>
</svg>
