<svg width="162" height="44" viewBox="0 0 162 44" fill="none" xmlns="http://www.w3.org/2000/svg">
<path d="M39.8235 42.635H31.2915C30.6339 42.635 30.1553 42.0111 30.3257 41.3758L41.2304 0.742755C41.3477 0.305758 41.7438 0.00195312 42.1962 0.00195312H53.3894C54.0722 0.00195312 54.5542 0.671016 54.338 1.31863L40.772 41.9517C40.6358 42.3598 40.2537 42.635 39.8235 42.635Z" fill="#FF6262"/>
<path d="M27.3039 10.082L18.6531 10.0821C17.9668 10.0821 17.4844 10.7577 17.7073 11.4068L27.8641 40.9863C28.182 41.912 29.5031 41.8771 29.7716 40.9358L33.7494 26.99C33.8061 26.7912 33.7998 26.5797 33.7314 26.3847L28.2475 10.751C28.1069 10.3503 27.7286 10.082 27.3039 10.082Z" fill="#FFB61D"/>
<path d="M8.74279 16.6836H1.33361C0.620778 16.6836 0.136845 17.4081 0.409871 18.0666L7.20654 34.4586C7.57266 35.3416 8.85023 35.2568 9.09652 34.3332L12.2335 22.5695C12.2996 22.3217 12.268 22.0581 12.1452 21.833L9.62069 17.2047C9.44546 16.8835 9.10874 16.6836 8.74279 16.6836Z" fill="#A6CE39"/>
<path d="M17.1198 36.1828H10.1458C9.4864 36.1828 9.00751 35.5557 9.18108 34.9195L15.4878 11.8042C15.7491 10.8466 17.0952 10.8136 17.4032 11.7572L21.5758 24.5424C21.6428 24.7478 21.6415 24.9694 21.5721 25.174L18.0667 35.5041C17.929 35.9098 17.5482 36.1828 17.1198 36.1828Z" fill="#09B5EC"/>
<path d="M68.0749 31.5929H71.4767L75.0182 19.2549L78.5596 31.5929H81.9614L87.318 13.3144H83.6877L80.2605 25.8808L76.8333 13.3144L73.203 13.3398L69.7758 25.8808L66.3486 13.3144H62.7183L68.0749 31.5929Z" fill="#09B5EC"/>
<path d="M91.042 31.9737C92.3621 31.9737 93.5764 31.6267 94.685 30.9328C95.802 30.2389 96.6186 29.2657 97.1348 28.0133L93.6822 27.0232C93.1575 28.1741 92.2098 28.7495 90.8389 28.7495C89.8996 28.7495 89.1591 28.4872 88.6175 27.9626C88.0844 27.4379 87.7544 26.6848 87.6274 25.7031H97.249C97.3929 24.0445 97.2236 22.6017 96.7413 21.3747C96.2589 20.1477 95.5143 19.1957 94.5073 18.5187C93.5002 17.8417 92.2775 17.5032 90.8389 17.5032C89.4849 17.5032 88.2875 17.8121 87.2466 18.4298C86.2058 19.0391 85.3892 19.898 84.7968 21.0066C84.2045 22.1151 83.9083 23.4183 83.9083 24.9161C83.9083 26.287 84.2087 27.5056 84.8095 28.5718C85.4188 29.6296 86.2566 30.4632 87.3228 31.0724C88.3975 31.6733 89.6372 31.9737 91.042 31.9737ZM90.9912 20.4989C91.8205 20.4989 92.4552 20.7062 92.8952 21.1208C93.3437 21.5355 93.6314 22.2082 93.7583 23.1391H87.7163C88.0802 21.3789 89.1718 20.4989 90.9912 20.4989Z" fill="#09B5EC"/>
<path d="M96.9164 31.5929H99.9628V30.8059C100.445 31.1782 100.995 31.4659 101.613 31.669C102.231 31.8721 102.916 31.9737 103.669 31.9737C104.93 31.9737 106.035 31.6563 106.982 31.0217C107.93 30.387 108.666 29.5238 109.191 28.4322C109.724 27.3406 109.991 26.1093 109.991 24.7384C109.991 23.3422 109.72 22.1024 109.178 21.0193C108.645 19.9276 107.892 19.0687 106.919 18.4425C105.946 17.8163 104.803 17.5032 103.492 17.5032C102.891 17.5032 102.328 17.5751 101.803 17.719C101.287 17.8629 100.818 18.0702 100.394 18.341V13.3144H96.9164V31.5929ZM103.111 28.9019C101.96 28.9019 101.148 28.5211 100.674 27.7595C100.2 26.9894 99.9628 25.9824 99.9628 24.7384C99.9628 23.4945 100.196 22.4917 100.661 21.7301C101.135 20.96 101.909 20.575 102.984 20.575C103.754 20.575 104.384 20.7654 104.875 21.1462C105.374 21.5186 105.743 22.0221 105.979 22.6567C106.216 23.2829 106.335 23.9768 106.335 24.7384C106.335 25.5085 106.221 26.2109 105.992 26.8455C105.764 27.4717 105.413 27.971 104.939 28.3434C104.465 28.7157 103.855 28.9019 103.111 28.9019Z" fill="#09B5EC"/>
<path d="M109.864 15.98H113.317V12.9336H109.864V15.98ZM109.864 31.5929H113.317V17.884H109.864V31.5929Z" fill="#09B5EC"/>
<path d="M114.203 31.5929H125.525V28.3687H117.655V13.3144H114.203V31.5929Z" fill="#09B5EC"/>
<path d="M128.318 31.9737C129.376 31.9737 130.265 31.8129 130.984 31.4913C131.712 31.1613 132.38 30.6366 132.989 29.9173V31.5929H136.01V23.2152C136.01 22.589 135.985 22.0221 135.934 21.5143C135.884 21.0066 135.723 20.4988 135.452 19.9911C134.97 19.0772 134.259 18.4341 133.319 18.0617C132.38 17.6894 131.305 17.5032 130.095 17.5032C128.445 17.5032 127.142 17.8586 126.186 18.5695C125.23 19.2803 124.578 20.2027 124.231 21.3366L127.354 22.3267C127.574 21.7005 127.959 21.2647 128.509 21.0193C129.059 20.7739 129.588 20.6512 130.095 20.6512C130.908 20.6512 131.513 20.8035 131.91 21.1081C132.308 21.4043 132.541 21.874 132.609 22.5171C131.322 22.7033 130.188 22.8852 129.207 23.0629C128.225 23.2322 127.404 23.4353 126.744 23.6722C125.644 24.0784 124.87 24.6327 124.421 25.335C123.973 26.0289 123.749 26.854 123.749 27.8102C123.749 28.5718 123.922 29.27 124.269 29.9046C124.624 30.5309 125.141 31.0344 125.818 31.4152C126.503 31.7875 127.337 31.9737 128.318 31.9737ZM129.054 29.2573C128.462 29.2573 127.992 29.1261 127.646 28.8638C127.299 28.593 127.125 28.2249 127.125 27.7595C127.125 27.4125 127.235 27.1163 127.455 26.8709C127.675 26.6171 128.039 26.3886 128.547 26.1855C128.936 26.0416 129.414 25.9105 129.981 25.792C130.557 25.6651 131.424 25.5043 132.583 25.3096C132.575 25.6397 132.549 26.0035 132.507 26.4013C132.465 26.7905 132.372 27.1333 132.228 27.4294C132.135 27.6241 131.957 27.8652 131.695 28.153C131.441 28.4407 131.094 28.6988 130.654 28.9273C130.222 29.1473 129.689 29.2573 129.054 29.2573Z" fill="#09B5EC"/>
<path d="M136.112 31.5929H139.616V24.6369C139.616 23.7822 139.709 23.0968 139.895 22.5806C140.089 22.0644 140.335 21.6751 140.631 21.4128C140.927 21.142 141.245 20.96 141.583 20.867C141.922 20.7739 142.239 20.7273 142.535 20.7273C143.271 20.7273 143.838 20.8923 144.236 21.2224C144.642 21.5524 144.934 21.9628 145.112 22.4536C145.29 22.9444 145.395 23.4353 145.429 23.9261C145.463 24.4084 145.48 24.8061 145.48 25.1192V31.5929H148.983V23.9007C148.983 23.6722 148.966 23.3083 148.933 22.809C148.899 22.3098 148.801 21.7597 148.641 21.1589C148.48 20.5496 148.209 19.9657 147.828 19.4072C147.456 18.8487 146.931 18.3875 146.254 18.0236C145.577 17.6598 144.701 17.4778 143.627 17.4778C142.637 17.4778 141.773 17.6428 141.037 17.9729C140.301 18.3029 139.683 18.7429 139.184 19.293V17.884H136.112V31.5929Z" fill="#09B5EC"/>
<path d="M154.663 31.9737C155.307 31.9737 155.899 31.8975 156.44 31.7452C156.991 31.5929 157.49 31.3771 157.938 31.0978V32.4814C157.955 32.9891 157.824 33.4123 157.545 33.7507C157.274 34.0977 156.91 34.3558 156.453 34.525C155.996 34.7027 155.51 34.7916 154.993 34.7916C154.511 34.7916 154.063 34.6858 153.648 34.4743C153.242 34.2627 152.929 33.9538 152.709 33.5476L149.51 35.0962C150.035 35.9848 150.783 36.6998 151.757 37.2414C152.73 37.7915 153.8 38.0665 154.968 38.0665C155.975 38.0665 156.91 37.9311 157.773 37.6603C158.636 37.398 159.364 36.996 159.957 36.4544C160.557 35.9128 160.968 35.2232 161.188 34.3854C161.264 34.0892 161.315 33.7888 161.34 33.4842C161.374 33.188 161.391 32.8707 161.391 32.5322V17.884H158.37V18.6456C157.904 18.2817 157.376 18.0025 156.783 17.8079C156.199 17.6048 155.552 17.5032 154.841 17.5032C153.529 17.5032 152.387 17.8163 151.414 18.4425C150.441 19.0687 149.683 19.9276 149.142 21.0193C148.609 22.1024 148.342 23.3422 148.342 24.7384C148.342 26.1093 148.604 27.3406 149.129 28.4322C149.662 29.5238 150.403 30.387 151.35 31.0217C152.298 31.6563 153.403 31.9737 154.663 31.9737ZM155.222 28.9019C154.477 28.9019 153.868 28.7157 153.394 28.3434C152.92 27.971 152.569 27.4717 152.34 26.8455C152.112 26.2109 151.998 25.5085 151.998 24.7384C151.998 23.9768 152.116 23.2829 152.353 22.6567C152.59 22.0221 152.954 21.5186 153.445 21.1462C153.944 20.7654 154.579 20.575 155.349 20.575C156.432 20.575 157.206 20.96 157.672 21.7301C158.137 22.4917 158.37 23.4945 158.37 24.7384C158.37 25.9824 158.133 26.9894 157.659 27.7595C157.194 28.5211 156.381 28.9019 155.222 28.9019Z" fill="#09B5EC"/>
</svg>
