<svg width="176" height="62" viewBox="0 0 176 62" fill="none" xmlns="http://www.w3.org/2000/svg">
<path d="M19.153 8.13867L16.722 22.4047H20.61L23.043 8.13867H19.153Z" fill="#545454"/>
<path d="M13.4621 8.15534L9.65406 17.8843L9.24806 16.4153C8.49706 14.6453 6.36506 12.1033 3.86206 10.5013L7.34406 22.3983L11.4581 22.3913L17.5811 8.15234L13.4621 8.15534Z" fill="#545454"/>
<path d="M7.772 9.17658C7.546 8.30758 6.891 8.04858 6.078 8.01758H0.05L0 8.30158C4.691 9.43958 7.795 12.1816 9.083 15.4786L7.772 9.17658Z" fill="#545454"/>
<path d="M30.923 10.8745C32.195 10.8545 33.117 11.1325 33.833 11.4205L34.184 11.5855L34.71 8.49353C33.94 8.20453 32.733 7.89453 31.227 7.89453C27.385 7.89453 24.677 9.82953 24.656 12.6025C24.631 14.6515 26.585 15.7955 28.061 16.4785C29.576 17.1785 30.084 17.6235 30.077 18.2485C30.065 19.2035 28.869 19.6415 27.752 19.6415C26.195 19.6415 25.368 19.4265 24.091 18.8945L23.59 18.6665L23.043 21.8595C23.953 22.2585 25.632 22.6015 27.375 22.6195C31.462 22.6195 34.118 20.7075 34.146 17.7445C34.163 16.1235 33.126 14.8865 30.879 13.8715C29.519 13.2095 28.687 12.7695 28.695 12.1015C28.695 11.5085 29.401 10.8745 30.923 10.8745Z" fill="#545454"/>
<path d="M44.688 8.15625H41.684C40.751 8.15625 40.057 8.41025 39.647 9.34025L33.874 22.4142H37.957C37.957 22.4142 38.623 20.6562 38.774 20.2712C39.221 20.2712 43.188 20.2773 43.753 20.2773C43.869 20.7753 44.227 22.4142 44.227 22.4142H47.834L44.688 8.15625ZM39.893 17.3512C40.213 16.5322 41.442 13.3643 41.442 13.3643C41.421 13.4033 41.759 12.5392 41.96 12.0022L42.222 13.2323C42.222 13.2323 42.967 16.6382 43.123 17.3512H39.893Z" fill="#545454"/>
<path d="M96.767 0.757813C93.026 0.758813 89.616 2.17681 87.046 4.50581C84.474 2.17981 81.066 0.760813 77.329 0.760813C77.298 0.760813 77.266 0.760813 77.236 0.760813C69.278 0.812813 62.834 7.28681 62.834 15.2558C62.834 23.2568 69.328 29.7498 77.328 29.7498C81.065 29.7498 84.473 28.3328 87.044 26.0048C86.507 25.5198 86.021 24.9828 85.562 24.4208H88.555C88.104 24.9738 87.612 25.4918 87.083 25.9738H87.081C87.069 25.9868 87.056 25.9948 87.044 26.0058C89.617 28.3358 93.029 29.7558 96.772 29.7548C104.777 29.7518 111.264 23.2598 111.262 15.2558C111.262 15.2528 111.262 15.2508 111.262 15.2488C111.263 7.24481 104.772 0.755813 96.767 0.757813ZM85.728 6.00281H88.483C88.889 6.49481 89.266 7.01281 89.608 7.55481H84.693C85.01 7.03681 85.358 6.50381 85.728 6.00281ZM83.837 9.07681H90.444C90.679 9.57881 90.887 10.0978 91.069 10.6298H83.054C83.134 10.4798 83.414 9.87581 83.837 9.07681ZM68.751 18.9478L69.63 13.4058L67.647 18.9478H66.584L66.446 13.4058L65.507 18.9478H64.018L65.252 11.5978H67.504L67.583 16.1078L69.104 11.5978H71.547L70.33 18.9478H68.751ZM74.016 18.9358L74.067 18.3488C74.043 18.3518 73.573 19.0578 72.484 19.0578C71.914 19.0578 70.994 18.7468 70.994 17.3948C70.994 15.6758 72.396 15.1058 73.731 15.1058C73.941 15.1058 74.394 15.1438 74.394 15.1438C74.394 15.1438 74.445 15.0388 74.445 14.7548C74.445 14.2878 74.025 14.2238 73.45 14.2238C72.437 14.2238 71.768 14.4948 71.768 14.4948L71.992 13.1648C71.992 13.1648 72.804 12.8248 73.861 12.8248C74.408 12.8248 75.981 12.8828 75.981 14.6858L75.375 18.9358H74.016ZM79.759 17.0638C79.759 19.1148 77.772 19.0268 77.425 19.0268C76.13 19.0268 75.73 18.8478 75.693 18.8378L75.899 17.4878C75.901 17.4758 76.549 17.7228 77.27 17.7228C77.686 17.7228 78.226 17.6818 78.226 17.1848C78.226 16.4408 76.294 16.6188 76.294 14.8518C76.294 13.2928 77.452 12.8368 78.594 12.8368C79.476 12.8368 80.018 12.9578 80.018 12.9578L79.823 14.3198C79.823 14.3198 78.986 14.2508 78.769 14.2508C78.22 14.2508 77.921 14.3708 77.921 14.7548C77.92 15.5268 79.759 15.1488 79.759 17.0638ZM82.145 17.6018C82.282 17.6018 82.437 17.5548 82.543 17.5548L82.35 18.8658C82.195 18.9088 81.756 19.0648 81.193 19.0688C80.474 19.0748 79.963 18.6728 79.963 17.7608C79.963 17.1488 80.84 12.1058 80.874 12.0728H82.417L82.26 12.9748H83.03L82.833 14.4278H82.016L81.582 17.1048C81.549 17.3178 81.608 17.6018 82.145 17.6018ZM85.539 12.8048C87.233 12.8048 87.74 14.0448 87.74 15.0618C87.74 15.4688 87.536 16.4688 87.536 16.4688H84.4C84.4 16.4688 84.11 17.7038 85.767 17.7038C86.544 17.7038 87.406 17.3238 87.406 17.3238L87.134 18.8108C87.134 18.8108 86.636 19.0648 85.504 19.0648C84.277 19.0648 82.838 18.5458 82.838 16.3658C82.839 14.4768 83.987 12.8048 85.539 12.8048ZM89.626 22.9278H84.484C84.171 22.4278 83.879 21.9148 83.628 21.3758H90.471C90.219 21.9118 89.937 22.4298 89.626 22.9278ZM89.281 18.9588H87.697L88.66 12.9768H90.097L89.959 13.8438C89.959 13.8438 90.471 12.9008 91.162 12.9008C91.363 12.9008 91.46 12.9208 91.46 12.9208C91.255 13.3388 91.074 13.7218 90.886 14.7108C89.814 14.3308 89.732 16.4038 89.281 18.9588ZM95.316 18.8658C95.316 18.8658 94.486 19.0778 93.966 19.0778C92.124 19.0778 91.189 17.8068 91.189 15.8818C91.189 12.9788 92.922 11.4328 94.703 11.4328C95.508 11.4328 96.441 11.8108 96.441 11.8108L96.189 13.4458C96.189 13.4458 95.558 13.0048 94.773 13.0048C93.723 13.0048 92.781 14.0068 92.781 15.8278C92.781 16.7248 93.22 17.5608 94.316 17.5608C94.837 17.5608 95.592 17.1818 95.592 17.1818L95.316 18.8658ZM99.031 18.9388L99.083 18.3478C99.058 18.3508 98.588 19.0568 97.5 19.0568C96.93 19.0568 96.01 18.7458 96.01 17.3938C96.01 15.6748 97.412 15.1048 98.746 15.1048C98.956 15.1048 99.41 15.1428 99.41 15.1428C99.41 15.1428 99.462 15.0388 99.462 14.7548C99.462 14.2878 99.042 14.2238 98.466 14.2238C97.453 14.2238 96.785 14.4948 96.785 14.4948L97.009 13.1648C97.009 13.1648 97.821 12.8248 98.879 12.8248C99.425 12.8248 100.999 12.8828 100.998 14.6858L100.392 18.9358C100.391 18.9388 99.031 18.9388 99.031 18.9388ZM102.238 18.9588H100.654L101.617 12.9768H103.055L102.917 13.8438C102.917 13.8438 103.43 12.9008 104.121 12.9008C104.322 12.9008 104.418 12.9208 104.418 12.9208C104.214 13.3388 104.031 13.7218 103.844 14.7108C102.771 14.3308 102.689 16.4038 102.238 18.9588ZM106.967 18.9428L107.034 18.3918C107.034 18.3918 106.522 19.0378 105.596 19.0378C104.313 19.0378 103.684 17.7988 103.684 16.5328C103.684 14.5748 104.862 12.8678 106.276 12.8678C107.186 12.8698 107.767 13.6728 107.767 13.6728L108.101 11.6078L109.648 11.6048L108.468 18.9428H106.967ZM110.019 18.7358C109.978 18.8098 109.92 18.8668 109.846 18.9108C109.773 18.9518 109.695 18.9728 109.613 18.9728C109.533 18.9728 109.456 18.9518 109.382 18.9108C109.308 18.8668 109.25 18.8098 109.209 18.7358C109.167 18.6608 109.147 18.5848 109.147 18.5038C109.147 18.4218 109.168 18.3438 109.209 18.2698C109.25 18.1958 109.311 18.1358 109.384 18.0958C109.46 18.0548 109.535 18.0338 109.613 18.0338C109.693 18.0338 109.769 18.0548 109.843 18.0958C109.919 18.1368 109.977 18.1938 110.019 18.2698C110.062 18.3448 110.081 18.4228 110.081 18.5038C110.081 18.5848 110.061 18.6618 110.019 18.7358Z" fill="#545454"/>
<path d="M109.895 23.158C109.885 23.151 109.876 23.14 109.86 23.134C109.844 23.128 109.819 23.125 109.78 23.125H109.686V23.275H109.786C109.833 23.275 109.864 23.271 109.882 23.254C109.899 23.24 109.907 23.223 109.907 23.199C109.907 23.183 109.903 23.172 109.895 23.158Z" fill="#545454"/>
<path d="M110.218 23.068C110.175 22.99 110.116 22.935 110.041 22.894C109.966 22.853 109.89 22.832 109.812 22.832C109.732 22.832 109.656 22.853 109.582 22.894C109.508 22.935 109.447 22.992 109.406 23.068C109.363 23.142 109.344 23.22 109.344 23.3C109.344 23.38 109.365 23.459 109.406 23.532C109.449 23.606 109.507 23.666 109.58 23.707C109.654 23.748 109.732 23.769 109.814 23.769C109.894 23.769 109.972 23.748 110.045 23.707C110.118 23.666 110.177 23.606 110.218 23.532C110.26 23.459 110.28 23.381 110.28 23.3C110.28 23.219 110.259 23.141 110.218 23.068ZM109.93 23.56L109.886 23.481C109.851 23.419 109.822 23.378 109.8 23.362C109.786 23.352 109.764 23.344 109.736 23.344H109.689V23.559H109.607V23.054H109.781C109.841 23.054 109.884 23.059 109.908 23.069C109.935 23.079 109.958 23.093 109.972 23.118C109.988 23.141 109.995 23.166 109.995 23.192C109.995 23.229 109.981 23.26 109.956 23.289C109.93 23.315 109.894 23.332 109.851 23.335C109.869 23.341 109.883 23.351 109.894 23.362C109.915 23.382 109.939 23.415 109.969 23.461L110.031 23.56H109.93Z" fill="#545454"/>
<path d="M73.856 16.252C72.725 16.252 72.496 16.76 72.496 17.183C72.496 17.401 72.621 17.765 73.1 17.765C74.029 17.765 74.222 16.547 74.192 16.288C74.148 16.279 74.12 16.253 73.856 16.252Z" fill="#545454"/>
<path d="M85.545 14.1855C84.704 14.1855 84.542 15.1425 84.542 15.2435H86.255C86.255 15.1665 86.416 14.1855 85.545 14.1855Z" fill="#545454"/>
<path d="M106.543 14.3535C105.864 14.3535 105.327 15.1415 105.328 16.3385C105.328 17.0685 105.588 17.5365 106.144 17.5365C106.98 17.5365 107.383 16.4455 107.383 15.6325C107.383 14.7355 107.098 14.3535 106.543 14.3535Z" fill="#545454"/>
<path d="M109.949 18.3103C109.914 18.2483 109.865 18.2003 109.803 18.1653C109.741 18.1303 109.678 18.1133 109.612 18.1133C109.548 18.1133 109.483 18.1313 109.421 18.1653C109.359 18.1973 109.31 18.2473 109.275 18.3103C109.24 18.3733 109.222 18.4403 109.222 18.5053C109.222 18.5723 109.24 18.6383 109.273 18.6993C109.31 18.7613 109.357 18.8083 109.419 18.8453C109.481 18.8793 109.545 18.8993 109.612 18.8993C109.679 18.8993 109.745 18.8793 109.805 18.8453C109.867 18.8103 109.915 18.7623 109.951 18.6993C109.986 18.6373 110.002 18.5723 110.002 18.5053C110.002 18.4393 109.984 18.3733 109.949 18.3103ZM109.732 18.7623L109.687 18.6843C109.652 18.6213 109.624 18.5813 109.603 18.5663C109.586 18.5533 109.566 18.5473 109.537 18.5473H109.491V18.7613H109.407V18.2573H109.582C109.641 18.2573 109.685 18.2623 109.71 18.2733C109.735 18.2823 109.757 18.2993 109.774 18.3213C109.791 18.3433 109.797 18.3683 109.797 18.3953C109.797 18.4323 109.783 18.4633 109.757 18.4913C109.731 18.5203 109.695 18.5323 109.653 18.5373C109.673 18.5453 109.686 18.5543 109.696 18.5633C109.717 18.5843 109.741 18.6143 109.77 18.6623L109.832 18.7623H109.732Z" fill="#545454"/>
<path d="M98.8729 16.252C97.7419 16.252 97.5129 16.76 97.5129 17.183C97.5129 17.401 97.6369 17.765 98.1169 17.765C99.0459 17.765 99.2379 16.547 99.2089 16.288C99.1639 16.279 99.1359 16.253 98.8729 16.252Z" fill="#545454"/>
<path d="M109.698 18.3592C109.69 18.3492 109.679 18.3412 109.664 18.3342C109.647 18.3292 109.622 18.3242 109.582 18.3242V18.3252H109.491V18.4772H109.59C109.637 18.4772 109.668 18.4712 109.687 18.4562C109.702 18.4412 109.711 18.4222 109.711 18.4002C109.711 18.3832 109.707 18.3732 109.698 18.3592Z" fill="#545454"/>
<g clip-path="url(#clip0_1829_178)">
<path fill-rule="evenodd" clip-rule="evenodd" d="M169.762 8.25586H160.462C160.962 11.3559 163.962 14.2559 167.262 14.2559H174.662C174.762 13.9559 174.762 13.5559 174.762 13.2559C174.762 10.4559 172.562 8.25586 169.762 8.25586Z" fill="#B1B1B1"/>
<path fill-rule="evenodd" clip-rule="evenodd" d="M161.262 14.7559V22.2559H165.762V18.2559H169.762C171.962 18.2559 173.862 16.7559 174.462 14.7559H161.262Z" fill="#545454"/>
<path fill-rule="evenodd" clip-rule="evenodd" d="M145.262 8.25586V22.2559H149.262C149.262 22.2559 150.262 22.2559 150.762 21.2559C153.462 15.8559 154.262 14.2559 154.262 14.2559H154.762V22.2559H159.262V8.25586H155.262C155.262 8.25586 154.262 8.35586 153.762 9.25586C151.462 13.8559 150.262 16.2559 150.262 16.2559H149.762V8.25586H145.262Z" fill="#545454"/>
<path fill-rule="evenodd" clip-rule="evenodd" d="M126.262 22.2559V8.25586H130.762C130.762 8.25586 132.062 8.25586 132.762 10.2559C134.562 15.5559 134.762 16.2559 134.762 16.2559C134.762 16.2559 135.162 14.9559 136.762 10.2559C137.462 8.25586 138.762 8.25586 138.762 8.25586H143.262V22.2559H138.762V14.7559H138.262L135.762 22.2559H133.762L131.262 14.7559H130.762V22.2559H126.262Z" fill="#545454"/>
</g>
<g clip-path="url(#clip1_1829_178)">
<path d="M22.3602 48.6719H19.051C18.8245 48.6719 18.6319 48.8359 18.5966 49.0587L17.2582 57.5181C17.2316 57.685 17.3613 57.8355 17.5311 57.8355H19.111C19.3374 57.8355 19.53 57.6715 19.5653 57.4482L19.9263 55.1666C19.9611 54.9432 20.1542 54.7792 20.3802 54.7792H21.4278C23.6076 54.7792 24.8657 53.7276 25.1942 51.6438C25.3423 50.7321 25.2005 50.0158 24.7723 49.5141C24.3019 48.9632 23.4678 48.6719 22.3602 48.6719ZM22.7419 51.7615C22.561 52.9452 21.6537 52.9452 20.7765 52.9452H20.2771L20.6274 50.7345C20.6482 50.6009 20.7644 50.5025 20.8999 50.5025H21.1287C21.7263 50.5025 22.29 50.5025 22.5813 50.8421C22.755 51.0447 22.8082 51.3457 22.7419 51.7615Z" fill="#545454"/>
<path d="M32.252 51.7228H30.6673C30.5323 51.7228 30.4157 51.8212 30.3949 51.9548L30.3247 52.3967L30.2139 52.2365C29.8709 51.7402 29.1059 51.5742 28.3423 51.5742C26.5912 51.5742 25.0955 52.8964 24.8042 54.7511C24.6528 55.6763 24.8681 56.561 25.3946 57.178C25.8775 57.7452 26.5684 57.9816 27.3905 57.9816C28.8015 57.9816 29.5839 57.0771 29.5839 57.0771L29.5133 57.5161C29.4867 57.684 29.6163 57.8345 29.7852 57.8345H31.2126C31.4396 57.8345 31.6312 57.6705 31.667 57.4471L32.5234 52.0402C32.5505 51.8738 32.4213 51.7228 32.252 51.7228ZM30.0431 54.7974C29.8902 55.7 29.1717 56.3058 28.2552 56.3058C27.795 56.3058 27.4273 56.1587 27.1912 55.8799C26.957 55.603 26.868 55.2089 26.9425 54.77C27.0852 53.8751 27.8159 53.2495 28.7183 53.2495C29.1683 53.2495 29.5341 53.3986 29.775 53.6798C30.0165 53.9639 30.1123 54.3604 30.0431 54.7974Z" fill="#545454"/>
<path d="M40.6916 51.7227H39.0991C38.9472 51.7227 38.8045 51.7979 38.7183 51.9238L36.522 55.149L35.5911 52.0497C35.5325 51.8558 35.353 51.7227 35.1498 51.7227H33.5849C33.3948 51.7227 33.2627 51.9079 33.3232 52.0864L35.0772 57.2179L33.4282 59.5386C33.2985 59.7214 33.4291 59.9727 33.6532 59.9727H35.2436C35.3946 59.9727 35.5359 59.8994 35.6216 59.7759L40.918 52.1544C41.0448 51.972 40.9146 51.7227 40.6916 51.7227Z" fill="#545454"/>
<path d="M45.9639 48.6719H42.6543C42.4283 48.6719 42.2357 48.8359 42.2004 49.0587L40.862 57.5181C40.8354 57.685 40.9651 57.8355 41.1339 57.8355H42.8323C42.9901 57.8355 43.1251 57.7207 43.1497 57.5645L43.5296 55.1666C43.5644 54.9432 43.7575 54.7792 43.9834 54.7792H45.0305C47.2109 54.7792 48.4684 53.7276 48.7975 51.6438C48.946 50.7321 48.8033 50.0158 48.3751 49.5141C47.9052 48.9632 47.0715 48.6719 45.9639 48.6719ZM46.3457 51.7615C46.1652 52.9452 45.258 52.9452 44.3802 52.9452H43.8814L44.2322 50.7345C44.253 50.6009 44.3681 50.5025 44.5041 50.5025H44.733C45.3301 50.5025 45.8943 50.5025 46.1855 50.8421C46.3593 51.0447 46.412 51.3457 46.3457 51.7615Z" fill="#B1B1B1"/>
<path d="M55.8551 51.7228H54.2714C54.1355 51.7228 54.0198 51.8212 53.9995 51.9548L53.9293 52.3967L53.818 52.2365C53.475 51.7402 52.7105 51.5742 51.9469 51.5742C50.1958 51.5742 48.7006 52.8964 48.4093 54.7511C48.2584 55.6763 48.4727 56.561 48.9992 57.178C49.483 57.7452 50.173 57.9816 50.9951 57.9816C52.4061 57.9816 53.1885 57.0771 53.1885 57.0771L53.1179 57.5161C53.0913 57.684 53.2209 57.8345 53.3908 57.8345H54.8177C55.0437 57.8345 55.2363 57.6705 55.2716 57.4471L56.1285 52.0402C56.1546 51.8738 56.025 51.7228 55.8551 51.7228ZM53.6463 54.7974C53.4943 55.7 52.7748 56.3058 51.8584 56.3058C51.3992 56.3058 51.0305 56.1587 50.7943 55.8799C50.5601 55.603 50.4721 55.2089 50.5456 54.77C50.6893 53.8751 51.419 53.2495 52.3214 53.2495C52.7714 53.2495 53.1372 53.3986 53.3782 53.6798C53.6206 53.9639 53.7164 54.3604 53.6463 54.7974Z" fill="#B1B1B1"/>
<path d="M57.7234 48.9044L56.3652 57.5186C56.3386 57.6855 56.4682 57.836 56.6371 57.836H58.0026C58.2295 57.836 58.4221 57.672 58.4569 57.4487L59.7963 48.9898C59.8229 48.8229 59.6932 48.6719 59.5244 48.6719H57.9953C57.8603 48.6724 57.7442 48.7708 57.7234 48.9044Z" fill="#B1B1B1"/>
<path d="M3.51585 59.4794L3.76891 57.8769L3.2052 57.8639H0.513428L2.38407 46.0394C2.38988 46.0037 2.40875 45.9705 2.43633 45.9468C2.46391 45.9232 2.49923 45.9102 2.53601 45.9102H7.07472C8.58149 45.9102 9.62133 46.2227 10.1642 46.8397C10.4188 47.1291 10.5808 47.4316 10.6592 47.7644C10.7415 48.1136 10.7429 48.5309 10.6626 49.0398L10.6568 49.0769V49.403L10.9113 49.5468C11.1257 49.6601 11.296 49.7899 11.4267 49.9385C11.6444 50.1859 11.7852 50.5004 11.8447 50.8733C11.9062 51.2568 11.8858 51.7131 11.7852 52.2297C11.6691 52.824 11.4813 53.3416 11.2278 53.7651C10.9946 54.1554 10.6975 54.4791 10.3447 54.7299C10.0079 54.9682 9.60778 55.1491 9.15536 55.2648C8.71698 55.3787 8.21714 55.4361 7.66891 55.4361H7.31569C7.06311 55.4361 6.81778 55.5268 6.6252 55.6893C6.43214 55.8553 6.3044 56.082 6.2652 56.3299L6.23859 56.4742L5.79149 59.2985L5.77117 59.4022C5.76585 59.435 5.75665 59.4514 5.74311 59.4625C5.73101 59.4726 5.71359 59.4794 5.69665 59.4794H3.51585Z" fill="#253B80"/>
<path d="M11.1523 49.1152C11.1387 49.2016 11.1233 49.2899 11.1058 49.3805C10.5073 52.4441 8.45955 53.5024 5.84422 53.5024H4.51261C4.19277 53.5024 3.92326 53.734 3.87342 54.0485L3.19164 58.359L2.99858 59.5808C2.96616 59.7873 3.12584 59.9735 3.33487 59.9735H5.69664C5.97632 59.9735 6.2139 59.7709 6.25793 59.4959L6.28116 59.3763L6.72584 56.5631L6.75438 56.4087C6.79793 56.1328 7.036 55.9302 7.31567 55.9302H7.6689C9.95713 55.9302 11.7484 55.0041 12.272 52.324C12.4907 51.2044 12.3774 50.2696 11.7987 49.6121C11.6236 49.4138 11.4063 49.2493 11.1523 49.1152Z" fill="#B1B1B1"/>
<path d="M10.5262 48.8646C10.4347 48.838 10.3403 48.8139 10.2436 48.7922C10.1463 48.771 10.0466 48.7522 9.94406 48.7358C9.58503 48.6779 9.19164 48.6504 8.77019 48.6504H5.21277C5.12519 48.6504 5.04196 48.6702 4.96745 48.7059C4.80341 48.7845 4.68148 48.9393 4.65196 49.1289L3.89519 53.9073L3.87341 54.0467C3.92325 53.7322 4.19277 53.5007 4.51261 53.5007H5.84422C8.45954 53.5007 10.5073 52.4419 11.1058 49.3788C11.1237 49.2881 11.1387 49.1998 11.1523 49.1135C11.0008 49.0334 10.8368 48.9649 10.6602 48.9065C10.6166 48.8921 10.5716 48.8781 10.5262 48.8646Z" fill="#484848"/>
<path d="M4.65193 49.1298C4.68145 48.9402 4.80338 48.7854 4.96741 48.7073C5.04241 48.6716 5.12516 48.6518 5.21274 48.6518H8.77016C9.19161 48.6518 9.58499 48.6793 9.94403 48.7372C10.0466 48.7536 10.1463 48.7724 10.2435 48.7936C10.3403 48.8153 10.4347 48.8394 10.5261 48.866C10.5716 48.8795 10.6166 48.8935 10.6606 48.9074C10.8373 48.9658 11.0013 49.0348 11.1527 49.1144C11.3308 47.9822 11.1513 47.2114 10.5373 46.5134C9.86032 45.745 8.63854 45.416 7.07516 45.416H2.53645C2.21709 45.416 1.94467 45.6476 1.89532 45.9625L0.0048333 57.9086C-0.0324248 58.1449 0.150478 58.3581 0.389511 58.3581H3.19161L3.89516 53.9082L4.65193 49.1298Z" fill="#545454"/>
</g>
<g clip-path="url(#clip2_1829_178)">
<path d="M83.3092 46.977C82.817 47.5594 82.0295 48.0187 81.242 47.9531C81.1436 47.1656 81.5291 46.3289 81.9803 45.8121C82.4725 45.2133 83.3338 44.7867 84.0311 44.7539C84.1131 45.5742 83.7932 46.3781 83.3092 46.977ZM84.0229 48.109C82.8826 48.0434 81.9064 48.757 81.365 48.757C80.8154 48.757 79.9869 48.1418 79.0846 48.1582C77.9115 48.1746 76.8205 48.8391 76.2217 49.8973C74.9912 52.0137 75.9018 55.1473 77.0912 56.8699C77.6736 57.723 78.3709 58.6582 79.2896 58.6254C80.1592 58.5926 80.5037 58.0594 81.5537 58.0594C82.6119 58.0594 82.9154 58.6254 83.8342 58.609C84.7857 58.5926 85.3846 57.7559 85.967 56.9027C86.6314 55.9348 86.9021 54.9914 86.9186 54.9422C86.9021 54.9258 85.0811 54.2285 85.0646 52.1285C85.0482 50.373 86.5002 49.5363 86.5658 49.4871C85.7455 48.273 84.4658 48.1418 84.0229 48.109ZM90.61 45.7301V58.5187H92.5951V54.1465H95.3432C97.8533 54.1465 99.617 52.4238 99.617 49.9301C99.617 47.4363 97.8861 45.7301 95.4088 45.7301H90.61ZM92.5951 47.4035H94.8838C96.6064 47.4035 97.5908 48.3223 97.5908 49.9383C97.5908 51.5543 96.6064 52.4812 94.8756 52.4812H92.5951V47.4035ZM103.243 58.6172C104.49 58.6172 105.646 57.9855 106.171 56.9848H106.212V58.5187H108.05V52.1531C108.05 50.3074 106.573 49.118 104.301 49.118C102.193 49.118 100.634 50.3238 100.577 51.9809H102.365C102.513 51.1934 103.243 50.6766 104.244 50.6766C105.458 50.6766 106.138 51.2426 106.138 52.2844V52.9898L103.661 53.1375C101.356 53.277 100.109 54.2203 100.109 55.8609C100.109 57.518 101.397 58.6172 103.243 58.6172ZM103.776 57.0996C102.718 57.0996 102.045 56.591 102.045 55.8117C102.045 55.0078 102.693 54.5402 103.932 54.4664L106.138 54.327V55.0488C106.138 56.2465 105.121 57.0996 103.776 57.0996ZM110.503 61.9969C112.438 61.9969 113.349 61.2586 114.145 59.0191L117.631 49.241H115.613L113.275 56.7961H113.234L110.896 49.241H108.821L112.184 58.5516L112.004 59.1176C111.7 60.0773 111.208 60.4465 110.33 60.4465C110.174 60.4465 109.871 60.4301 109.748 60.4137V61.9477C109.863 61.9805 110.355 61.9969 110.503 61.9969Z" fill="#545454"/>
</g>
<g clip-path="url(#clip3_1829_178)">
<path d="M153.127 53.1837V58.0728H151.576V45.9989H155.689C156.18 45.9886 156.668 46.0757 157.126 46.2551C157.583 46.4345 158 46.7027 158.353 47.0441C158.71 47.3648 158.993 47.7582 159.185 48.1977C159.377 48.6372 159.473 49.1127 159.466 49.5922C159.476 50.0743 159.382 50.5529 159.19 50.9952C158.998 51.4375 158.712 51.8331 158.353 52.1548C157.634 52.8407 156.746 53.1833 155.689 53.1827H153.127V53.1837ZM153.127 47.4853V51.7001H155.728C156.013 51.7085 156.297 51.6574 156.561 51.5499C156.825 51.4424 157.064 51.2809 157.262 51.0758C157.46 50.884 157.616 50.6547 157.724 50.4012C157.831 50.1478 157.886 49.8755 157.886 49.6004C157.886 49.3253 157.831 49.053 157.724 48.7996C157.616 48.5462 157.46 48.3168 157.262 48.125C157.067 47.9156 156.829 47.7502 156.564 47.6397C156.299 47.5293 156.014 47.4763 155.728 47.4844H153.127V47.4853Z" fill="#5F6368"/>
<path d="M163.04 49.541C164.186 49.541 165.091 49.8474 165.754 50.4601C166.418 51.0728 166.749 51.9128 166.749 52.9802V58.0716H165.265V56.9252H165.198C164.555 57.8693 163.701 58.3414 162.635 58.3414C161.725 58.3414 160.964 58.0716 160.351 57.5322C160.057 57.2846 159.822 56.9745 159.663 56.6245C159.504 56.2745 159.425 55.8934 159.432 55.5091C159.432 54.6543 159.755 53.9744 160.401 53.4696C161.047 52.9648 161.91 52.7118 162.989 52.7105C163.91 52.7105 164.668 52.8791 165.264 53.2163V52.8617C165.266 52.5997 165.209 52.3406 165.098 52.1032C164.988 51.8657 164.825 51.6559 164.623 51.4889C164.213 51.1189 163.679 50.917 163.126 50.9235C162.26 50.9235 161.574 51.2889 161.07 52.0198L159.703 51.1595C160.455 50.0805 161.567 49.541 163.04 49.541ZM161.033 55.5428C161.032 55.7402 161.078 55.935 161.168 56.1109C161.257 56.2869 161.387 56.4389 161.547 56.5543C161.89 56.8242 162.316 56.9671 162.753 56.959C163.407 56.9579 164.034 56.6973 164.497 56.2345C165.011 55.7509 165.268 55.1835 165.268 54.5322C164.784 54.1469 164.11 53.9542 163.245 53.9542C162.615 53.9542 162.089 54.1061 161.669 54.4099C161.244 54.7182 161.033 55.0929 161.033 55.5428Z" fill="#5F6368"/>
<path d="M175.265 49.8125L170.086 61.7149H168.485L170.407 57.5503L167.001 49.8125H168.687L171.148 55.7469H171.182L173.576 49.8125H175.265Z" fill="#5F6368"/>
<path d="M146.859 52.1291C146.86 51.6564 146.82 51.1846 146.74 50.7188H140.198V53.3902H143.945C143.868 53.8168 143.706 54.2236 143.468 54.5858C143.23 54.9481 142.921 55.2584 142.559 55.498V57.2321H144.795C146.105 56.025 146.859 54.2399 146.859 52.1291Z" fill="#545454"/>
<path d="M140.198 58.9076C142.07 58.9076 143.646 58.2929 144.795 57.2332L142.559 55.4992C141.937 55.9211 141.136 56.162 140.198 56.162C138.389 56.162 136.853 54.9423 136.304 53.2988H134.001V55.0859C134.578 56.2347 135.463 57.2004 136.558 57.8753C137.652 58.5501 138.913 58.9075 140.198 58.9076Z" fill="#838181"/>
<path d="M136.304 53.2995C136.014 52.4383 136.014 51.5057 136.304 50.6445V48.8574H134.001C133.515 49.8238 133.262 50.8904 133.262 51.972C133.262 53.0536 133.515 54.1202 134.001 55.0866L136.304 53.2995Z" fill="#BCBCBC"/>
<path d="M140.198 47.7812C141.187 47.7651 142.143 48.1388 142.859 48.8216L144.839 46.8419C143.583 45.6628 141.92 45.0155 140.198 45.0356C138.913 45.0357 137.652 45.3931 136.558 46.0679C135.463 46.7428 134.578 47.7085 134.001 48.8573L136.304 50.6443C136.853 49.0008 138.389 47.7812 140.198 47.7812Z" fill="#545454"/>
</g>
<defs>
<clipPath id="clip0_1829_178">
<rect width="49" height="14" fill="white" transform="translate(126.262 8.25586)"/>
</clipPath>
<clipPath id="clip1_1829_178">
<rect width="60" height="15.9184" fill="white" transform="translate(0 45.416)"/>
</clipPath>
<clipPath id="clip2_1829_178">
<rect width="42" height="17.243" fill="white" transform="translate(75.631 44.7539)"/>
</clipPath>
<clipPath id="clip3_1829_178">
<rect width="42" height="16.6788" fill="white" transform="translate(133.262 45.0352)"/>
</clipPath>
</defs>
</svg>
